<?xml version="1.0" encoding="UTF-8" standalone="no"?>
<!-- Created with Inkscape (http://www.inkscape.org/) -->

<svg
   width="10.451042mm"
   height="10.451043mm"
   viewBox="0 0 10.451042 10.451043"
   version="1.1"
   id="svg1"
   xml:space="preserve"
   xmlns="http://www.w3.org/2000/svg"
   xmlns:svg="http://www.w3.org/2000/svg"><defs
     id="defs1" /><g
     id="layer1"
     transform="translate(-398.05893,-250.03128)"><path
       id="path23"
       style="fill:#1a1a1a;fill-opacity:1;fill-rule:evenodd;stroke-width:0.275664"
       d="m 403.28443,250.03125 a 5.2255177,5.2255177 0 0 0 -5.22552,5.22552 5.2255177,5.2255177 0 0 0 5.22552,5.22552 5.2255177,5.2255177 0 0 0 5.22552,-5.22552 5.2255177,5.2255177 0 0 0 -5.22552,-5.22552 z m 0,1.38906 a 3.8364551,3.8364551 0 0 1 3.83646,3.83646 3.8364551,3.8364551 0 0 1 -3.83646,3.83646 3.8364551,3.8364551 0 0 1 -3.83646,-3.83646 3.8364551,3.8364551 0 0 1 3.83646,-3.83646 z" /><rect
       style="fill:#1a1a1a;fill-opacity:1;stroke:none;stroke-width:0.906155;stroke-linecap:round;stroke-linejoin:round;stroke-dasharray:none;stroke-opacity:1;paint-order:markers stroke fill"
       id="rect23"
       width="1.2628479"
       height="6.0446076"
       x="402.65323"
       y="252.23445"
       ry="0.63142395" /><rect
       style="fill:#1a1a1a;fill-opacity:1;stroke:none;stroke-width:0.906155;stroke-linecap:round;stroke-linejoin:round;stroke-dasharray:none;stroke-opacity:1;paint-order:markers stroke fill"
       id="rect24"
       width="1.2628479"
       height="6.0446076"
       x="254.62534"
       y="-406.30695"
       ry="0.63142395"
       transform="rotate(90)" /></g></svg>
