<?xml version="1.0" encoding="UTF-8" standalone="no"?>
<!-- Created with Inkscape (http://www.inkscape.org/) -->

<svg
   width="11.524264mm"
   height="11.524201mm"
   viewBox="0 0 11.524264 11.524201"
   version="1.1"
   id="svg1"
   xml:space="preserve"
   xmlns="http://www.w3.org/2000/svg"
   xmlns:svg="http://www.w3.org/2000/svg"><defs
     id="defs1" /><g
     id="layer1"
     transform="translate(-311.2848,-254.66028)"><path
       id="path12"
       style="fill:#1a1a1a;fill-opacity:1;stroke:none;stroke-width:0.321768;stroke-linecap:round;stroke-linejoin:round;stroke-dasharray:none;paint-order:markers stroke fill"
       d="m 313.08067,259.35419 -1.57458,0.80977 c -0.3062,0.15751 -0.29284,0.41816 0.0294,0.58395 l 4.92993,2.53576 c 0.32229,0.16578 0.82811,0.17249 1.1343,0.015 l 4.98782,-2.56574 c 0.30619,-0.15751 0.29334,-0.41815 -0.029,-0.58394 l -1.54512,-0.79479 -3.41375,1.75648 c -0.30619,0.15751 -0.81201,0.15081 -1.1343,-0.015 z" /><path
       id="rect12"
       style="fill:#1a1a1a;fill-opacity:1;stroke:none;stroke-width:0.321768;stroke-linecap:round;stroke-linejoin:round;stroke-dasharray:none;paint-order:markers stroke fill"
       d="m 317.05559,254.66043 c -0.20506,-0.003 -0.40812,0.0349 -0.56122,0.11368 l -4.98832,2.56626 c -0.30619,0.1575 -0.29284,0.41763 0.0294,0.58342 l 4.92993,2.53576 c 0.32229,0.16579 0.82811,0.1725 1.13431,0.015 l 4.98781,-2.56573 c 0.30619,-0.15751 0.29334,-0.41765 -0.029,-0.58343 l -4.92993,-2.53628 c -0.16115,-0.0829 -0.36804,-0.12598 -0.57308,-0.12867 z m -0.004,1.29862 c 0.11517,0.002 0.2314,0.0258 0.32194,0.0724 l 2.76986,1.42472 c 0.18108,0.0931 0.18857,0.23965 0.0165,0.32814 l -2.80293,1.44178 c -0.17204,0.0885 -0.45608,0.0844 -0.63717,-0.009 l -2.76986,-1.42472 c -0.18108,-0.0931 -0.18858,-0.23913 -0.0165,-0.32763 l 2.80242,-1.44177 c 0.086,-0.0442 0.20049,-0.0656 0.31575,-0.0641 z" /><path
       id="path13"
       style="fill:#1a1a1a;fill-opacity:1;stroke:none;stroke-width:0.321768;stroke-linecap:round;stroke-linejoin:round;stroke-dasharray:none;paint-order:markers stroke fill"
       d="m 313.08063,262.12612 -1.57458,0.80977 c -0.3062,0.1575 -0.29278,0.41816 0.0295,0.58394 l 4.92993,2.53576 c 0.32229,0.16579 0.82811,0.17249 1.1343,0.015 l 4.9878,-2.56573 c 0.30619,-0.15751 0.29341,-0.41817 -0.0289,-0.58395 l -1.54513,-0.79478 -3.41374,1.75648 c -0.30619,0.15751 -0.81201,0.15082 -1.1343,-0.015 z m 7.85069,0.74311 0.56534,0.29093 c 0.11799,0.0607 0.12294,0.15624 0.0109,0.21394 l -4.25814,2.22519 c -0.1121,0.0581 -0.2975,0.0555 -0.41548,-0.005 l -1.80454,-0.92811 c -0.118,-0.0607 -0.12294,-0.15624 -0.0109,-0.21394 l 0.57619,-0.2961 1.2392,0.63769 c 0.11798,0.0602 0.30339,0.0624 0.41548,0.005 z" /></g></svg>
