<?xml version="1.0" encoding="UTF-8" standalone="no"?>
<!-- Created with Inkscape (http://www.inkscape.org/) -->

<svg
   width="11.52436mm"
   height="11.52436mm"
   viewBox="0 0 11.52436 11.52436"
   version="1.1"
   id="svg1"
   xml:space="preserve"
   xmlns="http://www.w3.org/2000/svg"
   xmlns:svg="http://www.w3.org/2000/svg"><defs
     id="defs1" /><g
     id="layer1"
     transform="translate(-872.89472,-495.48779)"><path
       id="path527"
       style="fill:#1a1a1a;fill-opacity:1;stroke-width:0.111958;stroke-linecap:round;stroke-linejoin:round;paint-order:markers stroke fill"
       d="m 874.30191,495.48781 c -0.77944,0 -1.40715,0.62719 -1.40715,1.40663 v 8.71058 c 0,0.77944 0.62771,1.40715 1.40715,1.40715 h 8.71006 c 0.77944,0 1.40715,-0.62771 1.40715,-1.40715 v -8.71058 c 0,-0.77944 -0.62771,-1.40663 -1.40715,-1.40663 z m 1.4826,1.96164 h 5.74487 c 0.51408,0 0.92811,0.41402 0.92811,0.92811 v 5.74487 c 0,0.51408 -0.41403,0.9281 -0.92811,0.9281 h -5.74487 c -0.51408,0 -0.92811,-0.41402 -0.92811,-0.9281 v -5.74487 c 0,-0.51409 0.41403,-0.92811 0.92811,-0.92811 z" /></g></svg>
