<?xml version="1.0" encoding="UTF-8" standalone="no"?>
<!-- Created with Inkscape (http://www.inkscape.org/) -->

<svg
   width="13.159919mm"
   height="13.15942mm"
   viewBox="0 0 13.159919 13.15942"
   version="1.1"
   id="svg1"
   xml:space="preserve"
   xmlns="http://www.w3.org/2000/svg"
   xmlns:svg="http://www.w3.org/2000/svg"><defs
     id="defs1" /><g
     id="layer1"
     transform="translate(-389.74827,-209.14124)"><g
       id="g22"><path
         id="path21"
         style="fill:#1a1a1a;fill-opacity:1;stroke:none;stroke-width:0.541999;stroke-linecap:round;stroke-linejoin:round;stroke-dasharray:none;stroke-opacity:1;paint-order:markers stroke fill"
         d="m 394.10721,211.84961 c -0.91426,0 -1.65003,0.73578 -1.65003,1.65003 v 7.15047 c 0,0.91425 0.73577,1.65055 1.65003,1.65055 h 7.15047 c 0.91425,0 1.65054,-0.7363 1.65054,-1.65055 v -7.15047 c 0,-0.91425 -0.73629,-1.65003 -1.65054,-1.65003 z m 0.23306,1.26246 h 6.68434 c 0.34374,0 0.62064,0.2769 0.62064,0.62063 v 6.68435 c 0,0.34373 -0.2769,0.62063 -0.62064,0.62063 h -6.68434 c -0.34373,0 -0.62064,-0.2769 -0.62064,-0.62063 v -6.68435 c 0,-0.34373 0.27691,-0.62063 0.62064,-0.62063 z" /><path
         id="path22"
         style="fill:#1a1a1a;fill-opacity:1;stroke:none;stroke-width:0.541999;stroke-linecap:round;stroke-linejoin:round;stroke-dasharray:none;stroke-opacity:1;paint-order:markers stroke fill"
         d="m 391.39833,209.14124 c -0.91426,0 -1.65003,0.73578 -1.65003,1.65003 v 7.15047 c 0,0.91425 0.73577,1.65055 1.65003,1.65055 h 7.15047 c 0.91425,0 1.65054,-0.7363 1.65054,-1.65055 v -7.15047 c 0,-0.91425 -0.73629,-1.65003 -1.65054,-1.65003 z m 0.23306,1.26246 h 6.68434 c 0.34374,0 0.62064,0.2769 0.62064,0.62063 v 6.68435 c 0,0.34373 -0.2769,0.62063 -0.62064,0.62063 h -6.68434 c -0.34373,0 -0.62064,-0.2769 -0.62064,-0.62063 v -6.68435 c 0,-0.34373 0.27691,-0.62063 0.62064,-0.62063 z" /></g></g></svg>
