<?xml version="1.0" encoding="UTF-8" standalone="no"?>
<!-- Created with Inkscape (http://www.inkscape.org/) -->

<svg
   width="10.451042mm"
   height="10.451059mm"
   viewBox="0 0 10.451042 10.451059"
   version="1.1"
   id="svg1"
   xml:space="preserve"
   xmlns="http://www.w3.org/2000/svg"
   xmlns:svg="http://www.w3.org/2000/svg"><defs
     id="defs1" /><g
     id="layer1"
     transform="translate(-397.80072,-224.6241)"><g
       id="g19"
       transform="translate(-13.002663,0.65481034)"><rect
         style="fill:#000000;fill-opacity:1;stroke:none;stroke-width:0.906155;stroke-linecap:round;stroke-linejoin:round;stroke-dasharray:none;stroke-opacity:1;paint-order:markers stroke fill"
         id="rect18"
         width="1.2628479"
         height="6.0446076"
         x="415.39728"
         y="226.17232"
         ry="0.63142395" /><rect
         style="fill:#000000;fill-opacity:1;stroke:none;stroke-width:0.906155;stroke-linecap:round;stroke-linejoin:round;stroke-dasharray:none;stroke-opacity:1;paint-order:markers stroke fill"
         id="rect19"
         width="1.2628479"
         height="6.0446076"
         x="228.5632"
         y="-419.05099"
         ry="0.63142395"
         transform="rotate(90)" /><path
         id="rect16"
         style="fill:#1a1a1a;fill-opacity:1;stroke:none;stroke-width:0.541999;stroke-linecap:round;stroke-linejoin:round;stroke-dasharray:none;stroke-opacity:1;paint-order:markers stroke fill"
         d="m 412.45338,223.96927 c -0.91426,0 -1.65003,0.73578 -1.65003,1.65003 v 7.15047 c 0,0.91425 0.73577,1.65055 1.65003,1.65055 h 7.15047 c 0.91425,0 1.65054,-0.7363 1.65054,-1.65055 v -7.15047 c 0,-0.91425 -0.73629,-1.65003 -1.65054,-1.65003 z m 0.23306,1.26246 h 6.68434 c 0.34374,0 0.62064,0.2769 0.62064,0.62063 v 6.68435 c 0,0.34373 -0.2769,0.62063 -0.62064,0.62063 h -6.68434 c -0.34373,0 -0.62064,-0.2769 -0.62064,-0.62063 v -6.68435 c 0,-0.34373 0.27691,-0.62063 0.62064,-0.62063 z" /></g></g></svg>
