<?xml version="1.0" encoding="UTF-8" standalone="no"?>
<!-- Created with Inkscape (http://www.inkscape.org/) -->

<svg
   width="11.524167mm"
   height="11.524911mm"
   viewBox="0 0 11.524167 11.524911"
   version="1.1"
   id="svg1"
   xml:space="preserve"
   xmlns="http://www.w3.org/2000/svg"
   xmlns:svg="http://www.w3.org/2000/svg"><defs
     id="defs1" /><g
     id="layer1"
     transform="translate(-847.40799,-327.22587)"><g
       id="g347"
       transform="translate(368.47834,91.654725)"><rect
         style="fill:#1a1a1a;fill-opacity:1;stroke-width:1.31356;stroke-linecap:round;stroke-linejoin:round;paint-order:markers stroke fill"
         id="rect80"
         width="11.524165"
         height="1.4046307"
         x="478.92966"
         y="-239.27704"
         ry="0.55322874"
         transform="scale(1,-1)"
         rx="0" /><path
         id="rect342"
         style="fill:#1a1a1a;fill-opacity:1;stroke:none;stroke-width:1.7899;stroke-linecap:round;stroke-linejoin:round;stroke-dasharray:none;stroke-opacity:1;paint-order:markers stroke fill"
         d="m 482.38193,237.8723 c -0.52036,0 -0.93948,0.41912 -0.93948,0.93948 v 7.34477 c 0,0.52036 0.41912,0.93948 0.93948,0.93948 h 4.61987 c 0.52036,0 0.93948,-0.41912 0.93948,-0.93948 v -7.34477 c 0,-0.52036 -0.41912,-0.93948 -0.93948,-0.93948 z m 0.85524,2.39572 h 0.29817 c 0.30649,0 0.55294,0.24697 0.55294,0.55346 v 4.0013 c 0,0.30649 -0.24645,0.55346 -0.55294,0.55346 h -0.29817 c -0.30649,0 -0.55345,-0.24697 -0.55345,-0.55346 v -4.0013 c 0,-0.30649 0.24696,-0.55346 0.55345,-0.55346 z m 2.70474,0 h 0.29818 c 0.30649,0 0.55345,0.24697 0.55345,0.55346 v 4.0013 c 0,0.30649 -0.24696,0.55346 -0.55345,0.55346 h -0.29818 c -0.30648,0 -0.55345,-0.24697 -0.55345,-0.55346 v -4.0013 c 0,-0.30649 0.24697,-0.55346 0.55345,-0.55346 z" /><path
         id="path342"
         style="fill:#1a1a1a;fill-opacity:1;fill-rule:evenodd;stroke-width:0.211408"
         d="m 484.73889,235.57115 a 3.0958482,2.687041 0 0 0 -3.09594,2.68718 3.0958482,2.687041 0 0 0 1.23662,2.14043 c 0.0963,-0.0815 0.221,-0.13074 0.3576,-0.13074 h 0.29817 c 0.30649,0 0.55294,0.24697 0.55294,0.55346 v 0.0568 a 3.0958482,2.687041 0 0 0 0.65009,0.0672 3.0958482,2.687041 0 0 0 0.65009,-0.0672 v -0.0568 c 0,-0.30649 0.24697,-0.55346 0.55345,-0.55346 h 0.29818 c 0.1366,0 0.26129,0.0493 0.3576,0.13074 a 3.0958482,2.687041 0 0 0 1.23662,-2.14043 3.0958482,2.687041 0 0 0 -3.09542,-2.68718 z m 0,1.10639 a 1.8215026,1.5809729 0 0 1 1.82108,1.58079 1.8215026,1.5809729 0 0 1 -1.82108,1.58078 1.8215026,1.5809729 0 0 1 -1.82211,-1.58078 1.8215026,1.5809729 0 0 1 1.82211,-1.58079 z" /></g></g></svg>
