<?xml version="1.0" encoding="UTF-8" standalone="no"?>
<!-- Created with Inkscape (http://www.inkscape.org/) -->

<svg
   width="8.9338217mm"
   height="11.52436mm"
   viewBox="0 0 8.9338217 11.52436"
   version="1.1"
   id="svg1"
   xml:space="preserve"
   xmlns="http://www.w3.org/2000/svg"
   xmlns:svg="http://www.w3.org/2000/svg"><defs
     id="defs1" /><g
     id="layer1"
     transform="translate(-385.76868,-222.07791)"><path
       id="rect52"
       style="fill:#1a1a1a;fill-opacity:1;stroke:none;stroke-width:0.549506;stroke-linecap:round;stroke-linejoin:round;stroke-dasharray:none;stroke-opacity:1;paint-order:markers stroke fill"
       d="m 386.66115,222.07792 c -0.49436,0 -0.89245,0.39809 -0.89245,0.89245 v 9.73946 c 0,0.49435 0.39809,0.89245 0.89245,0.89245 h 7.14892 c 0.49436,0 0.89245,-0.3981 0.89245,-0.89245 v -9.73946 c 0,-0.49436 -0.39809,-0.89245 -0.89245,-0.89245 z m 2.26188,2.84892 c 0.10174,0.003 0.20402,0.0301 0.29869,0.0848 0.30294,0.1749 0.40642,0.55953 0.23151,0.86248 l -1.13533,1.96629 1.13481,1.96577 c 0.17491,0.30294 0.0719,0.68757 -0.23099,0.86248 -0.30294,0.1749 -0.68757,0.0714 -0.86248,-0.23151 l -1.31,-2.2686 c -0.0694,-0.12013 -0.0943,-0.25319 -0.0811,-0.38085 0.006,-0.0942 0.0305,-0.18834 0.0811,-0.27596 l 1.31,-2.26911 c 0.12025,-0.20827 0.33996,-0.32179 0.56379,-0.31574 z m 2.62516,0 c 0.22383,-0.006 0.44303,0.10747 0.56328,0.31574 l 1.30999,2.26911 c 0.0683,0.11835 0.0935,0.24926 0.0816,0.37518 -0.005,0.096 -0.0296,0.19242 -0.0811,0.28163 l -1.31051,2.2686 c -0.17491,0.30294 -0.55954,0.40641 -0.86248,0.23151 -0.30295,-0.17491 -0.4059,-0.55954 -0.231,-0.86248 l 1.13482,-1.96577 -1.13482,-1.96629 c -0.1749,-0.30295 -0.072,-0.68758 0.231,-0.86248 0.0947,-0.0547 0.19746,-0.082 0.2992,-0.0848 z" /></g></svg>
