<?xml version="1.0" encoding="UTF-8" standalone="no"?>
<!-- Created with Inkscape (http://www.inkscape.org/) -->

<svg
   width="8.6393299mm"
   height="8.7152309mm"
   viewBox="0 0 8.6393299 8.7152309"
   version="1.1"
   id="svg1"
   xml:space="preserve"
   xmlns="http://www.w3.org/2000/svg"
   xmlns:svg="http://www.w3.org/2000/svg"><defs
     id="defs1" /><g
     id="layer1"
     transform="translate(-613.42331,-371.63472)"><path
       id="path287"
       style="fill:#1a1a1a;fill-opacity:1;fill-rule:evenodd;stroke-width:0.274554"
       d="m 617.7428,371.71061 c -0.11828,0.006 -0.13713,0.0378 -0.19376,0.0724 -0.40986,0.81036 -0.68929,1.68034 -0.85144,2.58091 0.34252,0.0815 0.69313,0.1241 1.0452,0.12707 0.35743,-0.002 0.71345,-0.0454 1.06108,-0.12862 -0.16008,-0.89849 -0.46038,-1.76685 -0.86822,-2.57619 -0.0571,-0.05 -0.10172,-0.0687 -0.19286,-0.0755 -2e-5,0 -0.003,-0.076 -0.003,-0.076 z m -0.71669,0.067 c -0.97769,0.16358 -1.86939,0.65846 -2.52544,1.4016 0.49657,0.47388 1.09116,0.83293 1.74173,1.05178 0.1542,-0.85069 0.41781,-1.6759 0.78371,-2.45338 z m 1.45003,0.003 c 0.36614,0.77517 0.63051,1.59801 0.78603,2.44642 0.64471,-0.21873 1.23404,-0.57527 1.72702,-1.04481 -0.65288,-0.74068 -1.5398,-1.23535 -2.51305,-1.40161 z m -4.26215,1.77389 c -0.51148,0.72455 -0.78753,1.58897 -0.79067,2.47586 0.003,0.88688 0.27919,1.75131 0.79067,2.47586 0.55365,-0.51832 1.21474,-0.90826 1.93621,-1.14205 -0.0601,-0.44187 -0.0906,-0.88755 -0.0914,-1.33381 7.5e-4,-0.44614 0.0313,-0.89168 0.0914,-1.33342 -0.72151,-0.23391 -1.38259,-0.62398 -1.93621,-1.14244 z m 7.06846,0.002 c -0.55621,0.52005 -1.22059,0.91058 -1.94551,1.1436 0.0595,0.44061 0.0897,0.88499 0.0903,1.32993 -5.6e-4,0.44495 -0.0307,0.88932 -0.0903,1.32994 0.72264,0.23209 1.3852,0.62071 1.94047,1.13817 0.50804,-0.72301 0.78211,-1.58445 0.78525,-2.46811 -5.5e-4,-0.88496 -0.2729,-1.7484 -0.78021,-2.47353 z m -4.66814,1.27144 c -0.0529,0.39838 -0.0804,0.79995 -0.0825,1.20209 0.002,0.40229 0.0296,0.80398 0.0825,1.20249 0.36999,-0.0869 0.74845,-0.1326 1.12849,-0.13637 0.38135,0.002 0.76126,0.0474 1.13275,0.13365 0.0513,-0.39771 0.0775,-0.79849 0.0782,-1.19977 -7.5e-4,-0.4014 -0.0269,-0.80232 -0.0782,-1.20015 -0.37148,0.0864 -0.75138,0.13135 -1.13275,0.13404 -0.38002,-0.004 -0.75848,-0.0492 -1.12849,-0.13598 z m 1.12849,2.74162 c -0.35207,0.003 -0.70268,0.0456 -1.0452,0.12706 0.16018,0.88865 0.44604,1.74749 0.8481,2.54861 0.0415,0.0725 0.0962,0.10459 0.1971,0.10431 0.11035,0.005 0.17364,-0.043 0.22134,-0.10767 0.39872,-0.80005 0.68174,-1.65718 0.83974,-2.54365 -0.34763,-0.0832 -0.70365,-0.12633 -1.06108,-0.12861 z m -1.5004,0.25993 c -0.65068,0.21869 -1.2454,0.57761 -1.74212,1.0514 0.65609,0.74336 1.54794,1.23839 2.52583,1.40199 -0.36591,-0.77749 -0.62951,-1.6027 -0.78371,-2.45339 z m 3.01977,0.004 c -0.15546,0.84813 -0.4197,1.6707 -0.78565,2.44564 0.97298,-0.16643 1.85959,-0.66107 2.51228,-1.4016 -0.49294,-0.46922 -1.08213,-0.82548 -1.72663,-1.04404 z" /></g></svg>
