<?xml version="1.0" encoding="UTF-8" standalone="no"?>
<!-- Created with Inkscape (http://www.inkscape.org/) -->

<svg
   width="11.515381mm"
   height="11.524168mm"
   viewBox="0 0 11.515381 11.524168"
   version="1.1"
   id="svg1"
   xml:space="preserve"
   xmlns="http://www.w3.org/2000/svg"
   xmlns:svg="http://www.w3.org/2000/svg"><defs
     id="defs1" /><g
     id="layer1"
     transform="translate(-787.5837,-327.47566)"><g
       id="g326"
       transform="translate(308.65412,91.903961)"><g
         id="g325"
         transform="translate(-0.00438927)"><rect
           style="fill:#1a1a1a;fill-opacity:1;stroke:none;stroke-width:2.37801;stroke-linecap:round;stroke-linejoin:round;stroke-dasharray:none;stroke-opacity:1;paint-order:markers stroke fill"
           id="rect309"
           width="1.0573267"
           height="1.9623684"
           x="484.16309"
           y="235.57169"
           ry="0.29930505" /><rect
           style="fill:#1a1a1a;fill-opacity:1;stroke:none;stroke-width:2.37801;stroke-linecap:round;stroke-linejoin:round;stroke-dasharray:none;stroke-opacity:1;paint-order:markers stroke fill"
           id="rect310"
           width="1.0573267"
           height="1.9623684"
           x="484.16309"
           y="237.96213"
           ry="0.29930505" /><rect
           style="fill:#1a1a1a;fill-opacity:1;stroke:none;stroke-width:2.37801;stroke-linecap:round;stroke-linejoin:round;stroke-dasharray:none;stroke-opacity:1;paint-order:markers stroke fill"
           id="rect311"
           width="1.0573267"
           height="1.9623684"
           x="484.16309"
           y="240.35258"
           ry="0.29930505" /><rect
           style="fill:#1a1a1a;fill-opacity:1;stroke:none;stroke-width:2.37801;stroke-linecap:round;stroke-linejoin:round;stroke-dasharray:none;stroke-opacity:1;paint-order:markers stroke fill"
           id="rect312"
           width="1.0573267"
           height="1.9623684"
           x="484.16309"
           y="242.74303"
           ry="0.29930505" /><rect
           style="fill:#1a1a1a;fill-opacity:1;stroke:none;stroke-width:2.37801;stroke-linecap:round;stroke-linejoin:round;stroke-dasharray:none;stroke-opacity:1;paint-order:markers stroke fill"
           id="rect313"
           width="1.0573267"
           height="1.9623684"
           x="484.16309"
           y="245.1335"
           ry="0.29930505" /></g><g
         id="g323"><path
           style="fill:#1a1a1a;fill-opacity:1;stroke:none;stroke-width:0.264583px;stroke-linecap:butt;stroke-linejoin:miter;stroke-opacity:1"
           d="m 490.35458,246.57167 -4.28227,0.002 c -0.29546,0.003 -0.4389,-0.1571 -0.43034,-0.48121 l -0.0111,-9.71185 c 0,0 -0.0113,-0.19997 0.30402,-0.23542 0.18604,-0.0209 0.33358,0.0781 0.39704,0.2223 l 4.0645,9.91551 c 0.0767,0.19275 0.0626,0.28878 -0.0418,0.2886 z"
           id="path313" /><path
           style="fill:#1a1a1a;fill-opacity:1;stroke:none;stroke-width:0.264583px;stroke-linecap:butt;stroke-linejoin:miter;stroke-opacity:1"
           d="m 479.02014,246.57167 4.28227,0.002 c 0.29546,0.003 0.4389,-0.1571 0.43034,-0.48121 l 0.0111,-9.71185 c 0,0 0.0113,-0.19997 -0.30402,-0.23542 -0.18604,-0.0209 -0.33358,0.0781 -0.39704,0.2223 l -4.0645,9.91551 c -0.0767,0.19275 -0.0626,0.28878 0.0418,0.2886 z"
           id="path323" /></g></g></g></svg>
