<?xml version="1.0" encoding="UTF-8" standalone="no"?>
<!-- Created with Inkscape (http://www.inkscape.org/) -->

<svg
   width="10.451042mm"
   height="10.451123mm"
   viewBox="0 0 10.451042 10.451123"
   version="1.1"
   id="svg1"
   xml:space="preserve"
   xmlns="http://www.w3.org/2000/svg"
   xmlns:svg="http://www.w3.org/2000/svg"><defs
     id="defs1" /><g
     id="layer1"
     transform="translate(-409.07721,-235.71855)"><circle
       style="fill:#1a1a1a;fill-rule:evenodd;stroke-width:0.221588"
       id="path239"
       cx="415.62561"
       cy="239.62117"
       r="1.1079427" /><path
       id="rect238"
       style="fill:#1a1a1a;fill-opacity:1;stroke:none;stroke-width:0.26143;stroke-linecap:round;stroke-linejoin:round;stroke-dasharray:none;paint-order:markers stroke fill"
       d="m 410.6103,235.72263 c -0.82203,4.6e-4 -1.53312,0.7695 -1.53312,1.64599 v 4.84125 2.30922 c 0,0.80635 0.61167,1.65056 1.65003,1.65055 l 7.15047,-7e-5 c 0.96351,-1e-5 1.65054,-0.69932 1.65054,-1.65055 v -1.4716 -5.67887 c 0,-0.88508 -0.74494,-1.65053 -1.65054,-1.65003 z m 0.34997,1.25842 h 6.68434 c 0.37336,0 0.62064,0.28288 0.62064,0.62063 v 5.16579 1.27008 c -0.0376,0.11918 -0.0986,0.21497 -0.18299,0.28738 -0.058,0.0555 -0.26416,0.079 -0.37111,-0.0167 l -1.5914,-1.43134 c -0.0693,-0.0716 -0.25344,-0.0902 -0.3537,0.032 l -0.85065,0.73674 c -0.0818,0.0784 -0.22136,0.15715 -0.37347,0.006 l -2.07001,-2.28638 c -0.11605,-0.10976 -0.34674,-0.1502 -0.50726,-0.0361 l -1.62503,1.53131 v -0.60033 l 0.005,-4.74144 c 2.3e-4,-0.2146 0.34248,-0.55098 0.61519,-0.53767 z" /></g></svg>
