<?xml version="1.0" encoding="UTF-8" standalone="no"?>
<!-- Created with Inkscape (http://www.inkscape.org/) -->

<svg
   width="8.9338217mm"
   height="11.52436mm"
   viewBox="0 0 8.9338217 11.52436"
   version="1.1"
   id="svg1"
   xml:space="preserve"
   xmlns="http://www.w3.org/2000/svg"
   xmlns:svg="http://www.w3.org/2000/svg"><defs
     id="defs1" /><g
     id="layer1"
     transform="translate(-406.16281,-221.41852)"><g
       id="g42"><path
         id="rect37"
         style="fill:#1a1a1a;fill-opacity:1;stroke:none;stroke-width:0.511311;stroke-linecap:round;stroke-linejoin:round;stroke-dasharray:none;stroke-opacity:1;paint-order:markers stroke fill"
         d="m 407.03614,226.25544 c -0.48378,0 -0.87333,0.38956 -0.87333,0.87333 v 4.94079 c 0,0.48377 0.38955,0.87333 0.87333,0.87333 h 7.18716 c 0.48377,0 0.87333,-0.38956 0.87333,-0.87333 v -4.94079 c 0,-0.48377 -0.38956,-0.87333 -0.87333,-0.87333 z m 3.60029,1.66553 a 1.0172946,1.0172946 0 0 1 1.017,1.01699 1.0172946,1.0172946 0 0 1 -0.39223,0.80202 v 0.46664 c 0,0.34632 -0.27844,0.62529 -0.62477,0.62529 -0.34632,0 -0.62528,-0.27897 -0.62528,-0.62529 v -0.47697 a 1.0172946,1.0172946 0 0 1 -0.39223,-0.79169 1.0172946,1.0172946 0 0 1 1.01751,-1.01699 z" /><path
         id="rect38"
         style="fill:#1a1a1a;fill-opacity:1;stroke:none;stroke-width:0.548602;stroke-linecap:round;stroke-linejoin:round;stroke-dasharray:none;stroke-opacity:1;paint-order:markers stroke fill"
         d="m 410.62972,221.41853 c -1.96929,0 -3.55483,1.58553 -3.55483,3.55482 v 2.56418 c 0,1.96929 1.58554,3.55482 3.55483,3.55482 1.9693,0 3.5543,-1.58553 3.5543,-3.55482 v -2.56418 c 0,-1.96929 -1.585,-3.55482 -3.5543,-3.55482 z m 0.006,1.16375 c 1.27312,0 2.29805,1.02492 2.29805,2.29805 v 1.65778 c 0,0.92681 -0.54452,1.72003 -1.33119,2.08411 a 1.0172946,1.0172946 0 0 1 0.0507,0.31574 1.0172946,1.0172946 0 0 1 -0.39223,0.79996 v 0.4687 c 0,0.34632 -0.27844,0.62529 -0.62477,0.62529 -0.34632,0 -0.62528,-0.27897 -0.62528,-0.62529 v -0.4687 a 1.0172946,1.0172946 0 0 1 -0.39223,-0.79996 1.0172946,1.0172946 0 0 1 0.0517,-0.31471 c -0.78757,-0.36372 -1.33273,-1.15767 -1.33273,-2.08514 v -1.65778 c 0,-1.27313 1.02493,-2.29805 2.29805,-2.29805 z" /></g></g></svg>
