<?xml version="1.0" encoding="UTF-8" standalone="no"?>
<!-- Created with Inkscape (http://www.inkscape.org/) -->

<svg
   width="11.524167mm"
   height="7.2657552mm"
   viewBox="0 0 11.524167 7.2657552"
   version="1.1"
   id="svg1"
   xml:space="preserve"
   xmlns="http://www.w3.org/2000/svg"
   xmlns:svg="http://www.w3.org/2000/svg"><defs
     id="defs1" /><g
     id="layer1"
     transform="translate(-308.78083,-204.69544)"><g
       id="g267"
       transform="matrix(0.54190838,0,0,0.54190838,-67.107579,60.3996)"
       style="fill:#1a1a1a;fill-opacity:1;stroke:none;stroke-width:1.00017;stroke-dasharray:none;stroke-opacity:1"><path
         id="path258"
         style="fill:#1a1a1a;fill-opacity:1;stroke:none;stroke-width:1.00017;stroke-linecap:butt;stroke-linejoin:miter;stroke-dasharray:none;stroke-opacity:1"
         d="m 704.24642,266.27419 c -3.85024,0.0455 -7.69221,2.3275 -10.60814,6.70966 4.97196,8.99583 16.45929,8.86354 21.26589,0 -2.949,-4.56406 -6.80751,-6.75514 -10.65775,-6.70966 z m 0.006,1.48053 c 3.22797,-0.0413 6.46194,1.66009 8.75968,5.21622 -3.74511,6.90612 -13.60716,7.03244 -17.48111,0.0233 2.27198,-3.4144 5.49347,-5.19819 8.72143,-5.23947 z" /><path
         id="path260"
         style="fill:#1a1a1a;fill-opacity:1;fill-rule:evenodd;stroke:none;stroke-width:1.00017;stroke-dasharray:none;stroke-opacity:1"
         d="m 704.1224,268.42961 a 4.355876,4.355876 0 0 0 -4.35581,4.35581 4.355876,4.355876 0 0 0 4.35581,4.3558 4.355876,4.355876 0 0 0 4.3558,-4.3558 4.355876,4.355876 0 0 0 -4.3558,-4.35581 z m 0,1.35599 a 2.9998863,2.9998863 0 0 1 2.99981,2.99982 2.9998863,2.9998863 0 0 1 -2.99981,2.99981 2.9998863,2.9998863 0 0 1 -2.99982,-2.99981 2.9998863,2.9998863 0 0 1 2.99982,-2.99982 z" /></g></g></svg>
