<?xml version="1.0" encoding="UTF-8" standalone="no"?>
<!-- Created with Inkscape (http://www.inkscape.org/) -->

<svg
   width="11.524167mm"
   height="8.0545797mm"
   viewBox="0 0 11.524167 8.0545797"
   version="1.1"
   id="svg1"
   xml:space="preserve"
   xmlns="http://www.w3.org/2000/svg"
   xmlns:svg="http://www.w3.org/2000/svg"><defs
     id="defs1" /><g
     id="layer1"
     transform="translate(-308.70512,-218.81302)"><g
       id="g266"
       transform="matrix(0.54190838,0,0,0.54190838,-67.183264,66.178265)"><path
         id="path261"
         style="fill:#1a1a1a;fill-opacity:1;stroke:none;stroke-width:0.264583px;stroke-linecap:butt;stroke-linejoin:miter;stroke-opacity:1"
         d="m 704.24642,282.92485 c -3.85024,0.0455 -7.69221,2.32751 -10.60814,6.70967 1.20471,2.17968 2.79234,3.82214 4.5744,4.93561 l 1.18649,-0.9927 c -1.53917,-0.86456 -2.89394,-2.16971 -3.86798,-3.93206 2.27198,-3.4144 5.49347,-5.19819 8.72143,-5.23947 v -5.2e-4 c 1.58592,-0.0203 3.17164,0.38518 4.6483,1.2206 l 1.16737,-0.97669 c -1.8597,-1.17855 -3.84167,-1.74783 -5.82187,-1.72444 z m 7.36079,2.86959 -1.12655,0.93121 c 0.92187,0.7698 1.77831,1.73006 2.53163,2.89595 -2.44449,4.50772 -7.49307,6.12084 -11.78326,4.75216 l -1.30534,1.07849 c 5.30898,2.21049 11.70012,0.23135 14.98048,-5.81773 -1.00513,-1.5556 -2.11684,-2.83066 -3.29696,-3.84008 z" /><path
         id="path262"
         style="fill:#1a1a1a;fill-rule:evenodd;stroke-width:0.264583"
         d="m 704.1224,285.08027 a 4.355876,4.355876 0 0 0 -4.35581,4.35581 4.355876,4.355876 0 0 0 1.11363,2.90215 l 1.04386,-0.87385 a 2.9998863,2.9998863 0 0 1 -0.8015,-2.0283 2.9998863,2.9998863 0 0 1 2.99982,-2.99982 2.9998863,2.9998863 0 0 1 2.38383,1.19425 l 1.03973,-0.87075 a 4.355876,4.355876 0 0 0 -3.42356,-1.67949 z m 4.23798,3.39825 -1.24437,1.02836 a 2.9998863,2.9998863 0 0 1 -2.99361,2.92902 2.9998863,2.9998863 0 0 1 -0.49713,-0.0434 l -1.24695,1.03094 a 4.355876,4.355876 0 0 0 1.74408,0.36846 4.355876,4.355876 0 0 0 4.3558,-4.35581 4.355876,4.355876 0 0 0 -0.11782,-0.95756 z" /><path
         style="fill:#1a1a1a;stroke:#1a1a1a;stroke-width:1.865;stroke-linecap:round;stroke-linejoin:miter;stroke-dasharray:none;stroke-opacity:1"
         d="M 711.20917,282.59404 695.7634,295.59241"
         id="path263" /></g></g></svg>
