<?xml version="1.0" encoding="UTF-8" standalone="no"?>
<!-- Created with Inkscape (http://www.inkscape.org/) -->

<svg
   width="8.0682411mm"
   height="11.52436mm"
   viewBox="0 0 8.0682411 11.52436"
   version="1.1"
   id="svg1"
   xml:space="preserve"
   xmlns="http://www.w3.org/2000/svg"
   xmlns:svg="http://www.w3.org/2000/svg"><defs
     id="defs1" /><g
     id="layer1"
     transform="translate(-441.94417,-192.19928)"><g
       id="g37"
       transform="translate(5.8932931,-8.0448127)"><path
         id="rect25"
         style="fill:#1a1a1a;fill-opacity:1;stroke:none;stroke-width:0.541999;stroke-linecap:round;stroke-linejoin:round;stroke-dasharray:none;stroke-opacity:1;paint-order:markers stroke fill"
         d="m 437.17021,200.24411 c -0.6202,0 -1.11931,0.49911 -1.11931,1.11931 v 4.26537 h 1.26298 v -3.66076 c 0,-0.25536 0.20559,-0.46095 0.46095,-0.46095 h 1.93321 v -1.26297 z m 3.29179,0 v 1.26297 h 1.93322 c 0.25536,0 0.46095,0.20559 0.46095,0.46095 v 3.66076 h 1.26297 v -4.26537 c 0,-0.6202 -0.49962,-1.11931 -1.11982,-1.11931 z m -4.4111,6.13916 v 4.26537 c 0,0.6202 0.49911,1.11983 1.11931,1.11983 h 2.53783 v -1.26297 h -1.93321 c -0.25536,0 -0.46095,-0.2056 -0.46095,-0.46096 v -3.66127 z m 6.80527,0 v 3.66127 c 0,0.25536 -0.20559,0.46096 -0.46095,0.46096 H 440.462 v 1.26297 h 2.53732 c 0.6202,0 1.11982,-0.49963 1.11982,-1.11983 v -4.26537 z" /><g
         id="g36"
         transform="translate(17.305702,-7.8109519)"><g
           id="g31"
           transform="translate(-14.259856,0.09168972)"><circle
             style="fill:#1a1a1a;fill-opacity:1;fill-rule:evenodd;stroke-width:0.264583"
             id="path31"
             cx="435.82303"
             cy="211.17633"
             r="0.88867116" /><circle
             style="fill:#1a1a1a;fill-opacity:1;fill-rule:evenodd;stroke-width:0.264583"
             id="circle31"
             cx="438.25519"
             cy="211.17633"
             r="0.88867116" /></g><g
           id="g33"
           transform="translate(-14.259856,2.6407728)"><circle
             style="fill:#1a1a1a;fill-opacity:1;fill-rule:evenodd;stroke-width:0.264583"
             id="circle32"
             cx="435.82303"
             cy="211.17633"
             r="0.88867116" /><circle
             style="fill:#1a1a1a;fill-opacity:1;fill-rule:evenodd;stroke-width:0.264583"
             id="circle33"
             cx="438.25519"
             cy="211.17633"
             r="0.88867116" /></g><g
           id="g35"
           transform="translate(-14.259856,5.1898559)"><circle
             style="fill:#1a1a1a;fill-opacity:1;fill-rule:evenodd;stroke-width:0.264583"
             id="circle34"
             cx="435.82303"
             cy="211.17633"
             r="0.88867116" /><circle
             style="fill:#1a1a1a;fill-opacity:1;fill-rule:evenodd;stroke-width:0.264583"
             id="circle35"
             cx="438.25519"
             cy="211.17633"
             r="0.88867116" /></g></g></g></g></svg>
