<?xml version="1.0" encoding="UTF-8" standalone="no"?>
<!-- Created with Inkscape (http://www.inkscape.org/) -->

<svg
   width="9.4753904mm"
   height="11.52436mm"
   viewBox="0 0 9.4753904 11.52436"
   version="1.1"
   id="svg1"
   xml:space="preserve"
   xmlns="http://www.w3.org/2000/svg"
   xmlns:svg="http://www.w3.org/2000/svg"><defs
     id="defs1" /><g
     id="layer1"
     transform="translate(-409.17857,-193.33806)"><g
       id="g16"
       transform="translate(-8.8630825,-3.1925739)"><path
         id="rect8"
         style="fill:#1a1a1a;fill-opacity:1;stroke:none;stroke-width:0.541999;stroke-linecap:round;stroke-linejoin:round;stroke-dasharray:none;stroke-opacity:1;paint-order:markers stroke fill"
         d="m 419.2881,196.53064 c -0.69055,0 -1.24643,0.55588 -1.24643,1.24644 v 9.03149 c 0,0.69055 0.55588,1.24643 1.24643,1.24643 h 6.98252 c 0.69055,0 1.24644,-0.55588 1.24644,-1.24643 v -9.03149 c 0,-0.69056 -0.55589,-1.24644 -1.24644,-1.24644 z m 0.46044,1.04283 h 6.06164 c 0.3638,0 0.6563,0.29301 0.6563,0.65681 v 8.12508 c 0,0.3638 -0.2925,0.65681 -0.6563,0.65681 h -6.06164 c -0.3638,0 -0.65681,-0.29301 -0.65681,-0.65681 v -8.12508 c 0,-0.3638 0.29301,-0.65681 0.65681,-0.65681 z" /><g
         id="g15"
         transform="translate(-10.89765,0.9366663)"><g
           id="g9"
           transform="translate(0,-0.04134112)"><circle
             style="fill:#1a1a1a;fill-opacity:1;fill-rule:evenodd;stroke-width:0.304011"
             id="path9"
             cx="432.24231"
             cy="201.39752"
             r="0.98803705" /><circle
             style="fill:#1a1a1a;fill-opacity:1;fill-rule:evenodd;stroke-width:0.304011"
             id="circle9"
             cx="435.11145"
             cy="201.39752"
             r="0.98803705" /></g><g
           id="g12"
           transform="translate(0,-5.7546875)"><g
             id="g11"
             transform="translate(0,3.0757813)"><circle
               style="fill:#1a1a1a;fill-opacity:1;fill-rule:evenodd;stroke-width:0.304011"
               id="circle10"
               cx="432.24231"
               cy="201.39752"
               r="0.98803705" /><circle
               style="fill:#1a1a1a;fill-opacity:1;fill-rule:evenodd;stroke-width:0.304011"
               id="circle11"
               cx="435.11145"
               cy="201.39752"
               r="0.98803705" /></g></g><g
           id="g14"
           transform="translate(0,-0.47955733)"><g
             id="g13"
             transform="translate(0,3.0757813)"><circle
               style="fill:#1a1a1a;fill-opacity:1;fill-rule:evenodd;stroke-width:0.304011"
               id="circle12"
               cx="432.24231"
               cy="201.39752"
               r="0.98803705" /><circle
               style="fill:#1a1a1a;fill-opacity:1;fill-rule:evenodd;stroke-width:0.304011"
               id="circle13"
               cx="435.11145"
               cy="201.39752"
               r="0.98803705" /></g></g></g></g></g></svg>
