<?xml version="1.0" encoding="UTF-8" standalone="no"?>
<!-- Created with Inkscape (http://www.inkscape.org/) -->

<svg
   width="11.524167mm"
   height="11.524152mm"
   viewBox="0 0 11.524167 11.524152"
   version="1.1"
   id="svg1"
   xml:space="preserve"
   xmlns="http://www.w3.org/2000/svg"
   xmlns:svg="http://www.w3.org/2000/svg"><defs
     id="defs1" /><g
     id="layer1"
     transform="translate(-461.00413,-254.69759)"><g
       id="g99"><rect
         style="fill:#1a1a1a;fill-opacity:1;stroke-width:0.365001;stroke-linecap:round;stroke-linejoin:round;paint-order:markers stroke fill"
         id="rect48"
         width="1.404632"
         height="6.2838535"
         x="471.12366"
         y="257.31772"
         ry="0.34062299" /><rect
         style="fill:#1a1a1a;fill-opacity:1;stroke-width:0.365001;stroke-linecap:round;stroke-linejoin:round;paint-order:markers stroke fill"
         id="rect57"
         width="1.404632"
         height="6.2838535"
         x="461.00412"
         y="257.31772"
         ry="0.34062299" /><path
         id="path51"
         style="fill:#1a1a1a;fill-opacity:1;fill-rule:evenodd;stroke-width:0.182974"
         d="m 466.76622,256.9912 a 3.4684763,3.4684763 0 0 0 -3.46847,3.46848 3.4684763,3.4684763 0 0 0 3.46847,3.46847 3.4684763,3.4684763 0 0 0 3.46848,-3.46847 3.4684763,3.4684763 0 0 0 -3.46848,-3.46848 z m 0,0.922 a 2.5464756,2.5464756 0 0 1 2.54648,2.54648 2.5464756,2.5464756 0 0 1 -2.54648,2.54648 2.5464756,2.5464756 0 0 1 -2.54647,-2.54648 2.5464756,2.5464756 0 0 1 2.54647,-2.54648 z" /><rect
         style="fill:#1a1a1a;fill-opacity:1;stroke:none;stroke-width:0.580045;stroke-linecap:round;stroke-linejoin:round;stroke-dasharray:none;stroke-opacity:1;paint-order:markers stroke fill"
         id="rect56"
         width="0.94047862"
         height="3.3257587"
         x="259.98944"
         y="-468.42911"
         ry="0.47023931"
         transform="rotate(90)" /><rect
         style="fill:#1a1a1a;fill-opacity:1;stroke:none;stroke-width:0.580045;stroke-linecap:round;stroke-linejoin:round;stroke-dasharray:none;stroke-opacity:1;paint-order:markers stroke fill"
         id="rect61"
         width="0.94047862"
         height="3.3257587"
         x="-467.23645"
         y="-262.12256"
         ry="0.47023931"
         transform="scale(-1)" /><rect
         style="fill:#1a1a1a;fill-opacity:1;stroke-width:0.365001;stroke-linecap:round;stroke-linejoin:round;paint-order:markers stroke fill"
         id="rect58"
         width="1.404632"
         height="6.2838535"
         x="264.81711"
         y="-469.90814"
         ry="0.34062299"
         transform="rotate(90)" /><rect
         style="fill:#1a1a1a;fill-opacity:1;stroke-width:0.365001;stroke-linecap:round;stroke-linejoin:round;paint-order:markers stroke fill"
         id="rect59"
         width="1.404632"
         height="6.2838535"
         x="254.69759"
         y="-469.90814"
         ry="0.34062299"
         transform="rotate(90)" /></g></g></svg>
