<?xml version="1.0" encoding="UTF-8" standalone="no"?>
<!-- Created with Inkscape (http://www.inkscape.org/) -->

<svg
   width="11.524296mm"
   height="11.524119mm"
   viewBox="0 0 11.524296 11.524119"
   version="1.1"
   id="svg1"
   xml:space="preserve"
   xmlns="http://www.w3.org/2000/svg"
   xmlns:svg="http://www.w3.org/2000/svg"><defs
     id="defs1" /><g
     id="layer1"
     transform="translate(-327.22597,-254.52816)"><g
       id="g38"><path
         id="path8"
         style="fill:#1a1a1a;fill-opacity:1;stroke:none;stroke-width:0.321768;stroke-linecap:round;stroke-linejoin:round;stroke-dasharray:none;paint-order:markers stroke fill"
         d="m 329.02182,259.2219 -1.57458,0.80977 c -0.3062,0.15751 -0.29284,0.41816 0.0294,0.58395 l 4.92993,2.53576 c 0.32229,0.16578 0.82811,0.17249 1.1343,0.015 l 4.98782,-2.56574 c 0.30619,-0.15751 0.29334,-0.41815 -0.029,-0.58394 l -1.54512,-0.79479 -3.41375,1.75648 c -0.30619,0.15751 -0.81201,0.15081 -1.1343,-0.015 z" /><rect
         style="fill:#1a1a1a;fill-opacity:1;stroke:none;stroke-width:0.356743;stroke-linecap:round;stroke-linejoin:round;stroke-dasharray:none;paint-order:markers stroke fill"
         id="rect9"
         width="6.852313"
         height="6.852313"
         x="465.26035"
         y="90.799164"
         transform="matrix(0.88924615,0.45742899,-0.88924615,0.45742899,0,0)"
         ry="0.62153554"
         rx="0.6542089" /><path
         id="path10"
         style="fill:#1a1a1a;fill-opacity:1;stroke:none;stroke-width:0.321768;stroke-linecap:round;stroke-linejoin:round;stroke-dasharray:none;paint-order:markers stroke fill"
         d="m 329.02182,261.99392 -1.57458,0.80977 c -0.3062,0.1575 -0.29284,0.41816 0.0294,0.58394 l 4.92993,2.53576 c 0.32229,0.16579 0.82811,0.1725 1.1343,0.015 l 4.98782,-2.56573 c 0.30619,-0.15751 0.29334,-0.41816 -0.029,-0.58394 l -1.54512,-0.79479 -3.41375,1.75648 c -0.30619,0.15751 -0.81201,0.15081 -1.1343,-0.015 z" /></g></g></svg>
