<?xml version="1.0" encoding="UTF-8" standalone="no"?>
<!-- Created with Inkscape (http://www.inkscape.org/) -->

<svg
   width="11.126096mm"
   height="11.524185mm"
   viewBox="0 0 11.126096 11.524185"
   version="1.1"
   id="svg1"
   xml:space="preserve"
   xmlns="http://www.w3.org/2000/svg"
   xmlns:svg="http://www.w3.org/2000/svg"><defs
     id="defs1" /><g
     id="layer1"
     transform="translate(-507.1211,-253.43016)"><g
       id="g407"><rect
         style="fill:#1a1a1a;fill-opacity:1;stroke-width:0.112;stroke-linecap:round;stroke-linejoin:round;paint-order:markers stroke fill"
         id="rect384"
         width="3.3689137"
         height="2.8562975"
         x="510.99976"
         y="253.43015"
         ry="0.737477" /><path
         id="path379"
         style="fill:#1a1a1a;fill-opacity:1;fill-rule:evenodd;stroke-width:0.758192"
         d="m 512.68413,254.95596 a 4.2361173,4.2361173 0 0 0 -4.23583,4.23636 4.2361173,4.2361173 0 0 0 4.23583,4.23583 4.2361173,4.2361173 0 0 0 4.23636,-4.23583 4.2361173,4.2361173 0 0 0 -4.23636,-4.23636 z m 0,2.32987 a 1.9063717,1.9063717 0 0 1 1.90649,1.90649 1.9063717,1.9063717 0 0 1 -1.90649,1.9065 1.9063717,1.9063717 0 0 1 -1.9065,-1.9065 1.9063717,1.9063717 0 0 1 1.9065,-1.90649 z" /><rect
         style="fill:#1a1a1a;fill-opacity:1;stroke-width:0.112;stroke-linecap:round;stroke-linejoin:round;paint-order:markers stroke fill"
         id="rect403"
         width="3.3689137"
         height="2.8562975"
         x="510.99976"
         y="262.09802"
         ry="0.737477" /><rect
         style="fill:#1a1a1a;fill-opacity:1;stroke-width:0.112;stroke-linecap:round;stroke-linejoin:round;paint-order:markers stroke fill"
         id="rect404"
         width="3.3689137"
         height="2.8562975"
         x="479.12469"
         y="-320.16351"
         ry="0.737477"
         transform="rotate(60)" /><rect
         style="fill:#1a1a1a;fill-opacity:1;stroke-width:0.112;stroke-linecap:round;stroke-linejoin:round;paint-order:markers stroke fill"
         id="rect405"
         width="3.3689137"
         height="2.8562975"
         x="479.12469"
         y="-311.49564"
         ry="0.737477"
         transform="rotate(60)" /><rect
         style="fill:#1a1a1a;fill-opacity:1;stroke-width:0.112;stroke-linecap:round;stroke-linejoin:round;paint-order:markers stroke fill"
         id="rect406"
         width="3.3689137"
         height="2.8562975"
         x="-33.559494"
         y="-579.35571"
         ry="0.737477"
         transform="rotate(120)" /><rect
         style="fill:#1a1a1a;fill-opacity:1;stroke-width:0.112;stroke-linecap:round;stroke-linejoin:round;paint-order:markers stroke fill"
         id="rect407"
         width="3.3689137"
         height="2.8562975"
         x="-33.559494"
         y="-570.68787"
         ry="0.737477"
         transform="rotate(120)" /></g></g></svg>
