<?xml version="1.0" encoding="UTF-8" standalone="no"?>
<!-- Created with Inkscape (http://www.inkscape.org/) -->

<svg
   width="11.52436mm"
   height="11.134204mm"
   viewBox="0 0 11.52436 11.134204"
   version="1.1"
   id="svg1"
   xml:space="preserve"
   xmlns="http://www.w3.org/2000/svg"
   xmlns:svg="http://www.w3.org/2000/svg"><defs
     id="defs1" /><g
     id="layer1"
     transform="translate(-409.74084,-223.03342)"><g
       id="g52"
       transform="translate(-7.2760417,14.783593)"><path
         id="path42"
         style="fill:#1a1a1a;fill-opacity:1;fill-rule:evenodd;stroke-width:0.279467"
         d="m 420.46374,212.03874 a 1.7785156,1.7785156 0 0 0 -1.77818,1.77818 1.7785156,1.7785156 0 0 0 1.77818,1.77871 1.7785156,1.7785156 0 0 0 1.7787,-1.77871 1.7785156,1.7785156 0 0 0 -1.7787,-1.77818 z m 0,0.92604 a 0.85247391,0.85247391 0 0 1 0.85266,0.85214 0.85247391,0.85247391 0 0 1 -0.85266,0.85266 0.85247391,0.85247391 0 0 1 -0.85214,-0.85266 0.85247391,0.85247391 0 0 1 0.85214,-0.85214 z" /><path
         id="rect45"
         style="fill:#1a1a1a;fill-opacity:1;stroke:none;stroke-width:0.507452;stroke-linecap:round;stroke-linejoin:round;stroke-dasharray:none;stroke-opacity:1;paint-order:markers stroke fill"
         d="m 417.78277,209.21875 c -0.42407,0 -0.76585,0.34126 -0.76585,0.76533 v 0.0889 c 0,0.42406 0.34178,0.76532 0.76585,0.76532 h 5.77484 a 0.85247391,0.85247391 0 0 1 -0.59015,-0.80977 0.85247391,0.85247391 0 0 1 0.59067,-0.80977 z m 6.30349,0 a 0.85247391,0.85247391 0 0 1 0.58653,0.80977 0.85247391,0.85247391 0 0 1 -0.59015,0.80977 h 3.69332 c 0.42406,0 0.76532,-0.34126 0.76532,-0.76532 v -0.0889 c 0,-0.42407 -0.34126,-0.76533 -0.76532,-0.76533 z" /><path
         id="rect46"
         style="fill:#1a1a1a;fill-opacity:1;stroke:none;stroke-width:0.507452;stroke-linecap:round;stroke-linejoin:round;stroke-dasharray:none;stroke-opacity:1;paint-order:markers stroke fill"
         d="m 417.78277,213.00715 c -0.42407,0 -0.76585,0.34178 -0.76585,0.76585 v 0.0884 c 0,0.42407 0.34178,0.76533 0.76585,0.76533 h 2.41897 a 0.85247391,0.85247391 0 0 1 -0.59014,-0.80977 0.85247391,0.85247391 0 0 1 0.59169,-0.80977 z m 2.94607,0 a 0.85247391,0.85247391 0 0 1 0.58756,0.80977 0.85247391,0.85247391 0 0 1 -0.59014,0.80977 h 7.0497 c 0.42406,0 0.76532,-0.34126 0.76532,-0.76533 v -0.0884 c 0,-0.42407 -0.34126,-0.76585 -0.76532,-0.76585 z" /><path
         id="rect47"
         style="fill:#1a1a1a;fill-opacity:1;stroke:none;stroke-width:0.507452;stroke-linecap:round;stroke-linejoin:round;stroke-dasharray:none;stroke-opacity:1;paint-order:markers stroke fill"
         d="m 417.78277,216.79607 c -0.42407,0 -0.76585,0.34126 -0.76585,0.76533 v 0.0884 c 0,0.42407 0.34178,0.76585 0.76585,0.76585 h 7.23728 a 0.85247391,0.85247391 0 0 1 -0.59169,-0.80977 0.85247391,0.85247391 0 0 1 0.59014,-0.80977 z m 7.7649,0 a 0.85247391,0.85247391 0 0 1 0.58601,0.80977 0.85247391,0.85247391 0 0 1 -0.5917,0.80977 h 2.23398 c 0.42406,0 0.76532,-0.34178 0.76532,-0.76585 v -0.0884 c 0,-0.42407 -0.34126,-0.76533 -0.76532,-0.76533 z" /><path
         id="circle48"
         style="fill:#1a1a1a;fill-opacity:1;fill-rule:evenodd;stroke-width:0.279467"
         d="m 423.82013,208.24982 a 1.7785156,1.7785156 0 0 0 -1.77871,1.7787 1.7785156,1.7785156 0 0 0 1.77871,1.77871 1.7785156,1.7785156 0 0 0 1.7787,-1.77871 1.7785156,1.7785156 0 0 0 -1.7787,-1.7787 z m 0,0.92604 a 0.85247391,0.85247391 0 0 1 0.85266,0.85266 0.85247391,0.85247391 0 0 1 -0.85266,0.85266 0.85247391,0.85247391 0 0 1 -0.85267,-0.85266 0.85247391,0.85247391 0 0 1 0.85267,-0.85266 z" /><path
         id="circle50"
         style="fill:#1a1a1a;fill-opacity:1;fill-rule:evenodd;stroke-width:0.279467"
         d="m 425.28102,215.82714 a 1.7785156,1.7785156 0 0 0 -1.7787,1.7787 1.7785156,1.7785156 0 0 0 1.7787,1.77819 1.7785156,1.7785156 0 0 0 1.7787,-1.77819 1.7785156,1.7785156 0 0 0 -1.7787,-1.7787 z m 0,0.92604 a 0.85247391,0.85247391 0 0 1 0.85266,0.85266 0.85247391,0.85247391 0 0 1 -0.85266,0.85214 0.85247391,0.85247391 0 0 1 -0.85266,-0.85214 0.85247391,0.85247391 0 0 1 0.85266,-0.85266 z" /></g></g></svg>
