<?xml version="1.0" encoding="UTF-8" standalone="no"?>
<!-- Created with Inkscape (http://www.inkscape.org/) -->

<svg
   width="11.524264mm"
   height="10.864583mm"
   viewBox="0 0 11.524264 10.864583"
   version="1.1"
   id="svg1"
   xml:space="preserve"
   xmlns="http://www.w3.org/2000/svg"
   xmlns:svg="http://www.w3.org/2000/svg"><defs
     id="defs1" /><g
     id="layer1"
     transform="translate(-292.0059,-189.53569)"><path
       id="path81"
       style="fill:#1a1a1a;fill-opacity:1;stroke:none;stroke-width:0.263105px;stroke-linecap:butt;stroke-linejoin:miter;stroke-opacity:1"
       d="m 296.35025,189.53625 c -0.0518,-0.004 -0.0705,0.0127 -0.0837,0.0636 l -2.69913,10.15442 c 0,0 -0.0215,0.10731 -0.10833,0.17466 -0.21806,0.16907 -0.58633,0.19307 -0.80382,0.0233 -0.0876,-0.0684 -0.0812,-0.20206 -0.0812,-0.20206 h -0.23098 -0.0168 a 0.3214289,0.32505029 0 0 0 -0.32039,0.32505 0.3214289,0.32505029 0 0 0 0.32143,0.32504 0.3214289,0.32505029 0 0 0 9.8e-4,0 h 3.89592 v -0.65061 h -0.21156 c 0,0 8.5e-4,3.6e-4 -0.0827,0.0698 -0.4447,0.36925 -1.6981,0.25566 -1.8294,0.047 -0.064,-0.10184 -0.0404,-0.13952 -0.0404,-0.13952 l 1.13445,-4.28088 h 3.05581 l 0.98472,3.71657 c 0,0 0.0845,0.34957 0,0.48783 -0.16483,0.26944 -0.73884,0.42426 -0.84113,0.42426 -0.0896,0 -0.54279,0.0511 -0.7522,-0.16071 -0.0758,-0.0766 -0.13593,-0.16434 -0.13593,-0.16434 h -0.31171 v 0.65061 h 6.01455 a 0.32147802,0.32509997 0 0 0 0.32143,-0.32556 0.32147802,0.32509997 0 0 0 -0.32143,-0.32505 h -0.0822 c -0.13645,0 -0.21845,0.17043 -0.30865,0.22893 -0.28621,0.18567 -0.70047,0.0891 -0.9801,-0.0935 -0.0757,-0.0531 -0.0714,-0.0677 -0.10271,-0.14315 l -2.67463,-10.07018 c -0.0334,-0.11125 -0.0472,-0.13493 -0.18498,-0.1354 z m 0.39143,0.62064 c 0.0211,9e-4 0.0426,0.0153 0.0511,0.0408 l 1.27649,4.593 c 0.0468,0.17052 0.0124,0.23645 -0.13491,0.23617 h -2.44824 c -0.10059,-2.4e-4 -0.11827,-0.0417 -0.0905,-0.16795 l 1.29593,-4.66122 c 0.008,-0.0291 0.029,-0.0417 0.05,-0.0408 z" /></g></svg>
